<svg width="64" height="61" viewBox="0 0 64 61" fill="none" xmlns="http://www.w3.org/2000/svg">
<path d="M63.3026 30.7766C63.3026 44.5645 53.9971 56.2288 41.1467 60.1374V52.3202C41.1467 49.6888 40.0072 47.3344 38.2031 45.6417C46.4957 44.1798 50.642 39.4863 50.642 30.7766C50.642 27.0064 49.8508 24.0211 48.2998 21.6975C48.9962 19.0661 49.4076 15.3267 47.4769 12.3106C43.7421 12.3106 41.1308 14.4496 39.5957 16.2039C37.301 15.6653 34.6581 15.3883 31.6513 15.3883C28.8027 15.3883 26.1756 15.6961 23.8334 16.327C22.3141 14.5573 19.6554 12.3106 15.8256 12.3106C13.5784 15.8192 14.4963 19.6047 15.3509 21.7283C13.6417 24.0519 12.6605 27.0372 12.6605 30.7766C12.6605 39.4863 16.8068 44.1798 25.0995 45.6417C24.0391 46.6419 23.2162 47.8576 22.7098 49.2425H18.9908C16.7119 49.2425 15.8256 48.2577 14.6071 46.6573C13.3885 45.0569 12.075 43.9797 10.5082 43.5335C9.66947 43.4411 9.09974 44.1028 9.84355 44.6876C12.3282 46.4265 12.5023 49.2733 13.4993 51.1353C14.4013 52.8126 16.2688 53.859 18.3736 53.859H22.1559V60.1374C9.30548 56.2288 0 44.5645 0 30.7766C0 13.7725 14.1639 0 31.6513 0C49.1386 0 63.3026 13.7725 63.3026 30.7766Z" fill="white"/>
</svg>
