<svg width="61" height="61" viewBox="0 0 61 61" fill="none" xmlns="http://www.w3.org/2000/svg">
<path d="M18.2732 0C8.23818 0 0.0737305 8.16445 0.0737305 18.1995V41.9379C0.0737305 51.973 8.23818 60.1374 18.2732 60.1374H42.0117C52.0467 60.1374 60.2112 51.973 60.2112 41.9379V18.1995C60.2112 8.16445 52.0467 0 42.0117 0H18.2732ZM45.9681 11.0779C47.7168 11.0779 49.1332 12.4943 49.1332 14.2431C49.1332 15.9902 47.7168 17.4082 45.9681 17.4082C44.2193 17.4082 42.803 15.9902 42.803 14.2431C42.803 12.4943 44.2193 11.0779 45.9681 11.0779ZM30.1424 14.2431C38.8687 14.2431 45.9681 21.3425 45.9681 30.0687C45.9681 38.795 38.8687 45.8943 30.1424 45.8943C21.4162 45.8943 14.3168 38.795 14.3168 30.0687C14.3168 21.3425 21.4162 14.2431 30.1424 14.2431ZM30.1424 18.9908C28.6877 18.9908 27.2471 19.2773 25.9031 19.834C24.5591 20.3907 23.3378 21.2067 22.3092 22.2354C21.2805 23.2641 20.4645 24.4853 19.9078 25.8294C19.351 27.1734 19.0645 28.6139 19.0645 30.0687C19.0645 31.5235 19.351 32.964 19.9078 34.3081C20.4645 35.6521 21.2805 36.8733 22.3092 37.902C23.3378 38.9307 24.5591 39.7467 25.9031 40.3034C27.2471 40.8601 28.6877 41.1467 30.1424 41.1467C31.5972 41.1467 33.0378 40.8601 34.3818 40.3034C35.7258 39.7467 36.947 38.9307 37.9757 37.902C39.0044 36.8733 39.8204 35.6521 40.3771 34.3081C40.9338 32.964 41.2204 31.5235 41.2204 30.0687C41.2204 28.6139 40.9338 27.1734 40.3771 25.8294C39.8204 24.4853 39.0044 23.2641 37.9757 22.2354C36.947 21.2067 35.7258 20.3907 34.3818 19.834C33.0378 19.2773 31.5972 18.9908 30.1424 18.9908Z" fill="white"/>
</svg>
