<svg width="61" height="61" viewBox="0 0 61 61" fill="none" xmlns="http://www.w3.org/2000/svg">
<path d="M51.8123 0H10.0502C4.9853 0 0.862549 4.12275 0.862549 9.18766V50.9498C0.862549 56.0147 4.9853 60.1374 10.0502 60.1374H51.8123C56.8772 60.1374 61 56.0147 61 50.9498V9.18766C61 4.12275 56.8772 0 51.8123 0ZM20.9084 46.7736C20.9084 47.6973 20.1617 48.444 19.2379 48.444H14.2264C13.3026 48.444 12.5559 47.6973 12.5559 46.7736V25.0573C12.5559 24.1335 13.3026 23.3868 14.2264 23.3868H19.2379C20.1617 23.3868 20.9084 24.1335 20.9084 25.0573V46.7736ZM16.7321 20.0458C14.4252 20.0458 12.5559 18.1765 12.5559 15.8696C12.5559 13.5627 14.4252 11.6934 16.7321 11.6934C19.0391 11.6934 20.9084 13.5627 20.9084 15.8696C20.9084 18.1765 19.0391 20.0458 16.7321 20.0458ZM49.3066 46.7736C49.3066 47.6973 48.5599 48.444 47.6361 48.444H42.6246C41.7009 48.444 40.9542 47.6973 40.9542 46.7736V34.2449C40.9542 31.9413 39.0816 30.0687 36.778 30.0687C34.4744 30.0687 32.6017 31.9413 32.6017 34.2449V46.7736C32.6017 47.6973 31.855 48.444 30.9313 48.444H25.9198C24.996 48.444 24.2493 47.6973 24.2493 46.7736V25.0573C24.2493 24.1335 24.996 23.3868 25.9198 23.3868H30.9313C31.855 23.3868 32.6017 24.1335 32.6017 25.0573V25.961C34.3775 24.3657 36.7145 23.3868 39.2837 23.3868C44.8113 23.3868 49.3066 27.882 49.3066 33.4097V46.7736Z" fill="white"/>
</svg>
