<svg width="68" height="61" viewBox="0 0 68 61" fill="none" xmlns="http://www.w3.org/2000/svg">
<path d="M66.9777 7.19143C66.5109 6.68194 65.7924 6.5366 65.1799 6.83395L64.9204 6.95924C64.7004 7.06615 64.4804 7.17306 64.2589 7.2783C64.903 6.19416 65.4142 5.03484 65.7671 3.83543C65.9633 3.17392 65.7497 2.4506 65.2306 2.02296C64.7115 1.59531 63.9962 1.55021 63.4344 1.9127C61.6287 3.07035 59.8942 3.90392 58.1011 4.48525C55.3949 1.71392 51.7092 0 47.6404 0C39.3367 0 32.606 7.10457 32.606 15.8696C32.606 15.878 32.606 16.2087 32.606 16.7048L31.025 16.5712C15.6378 14.6501 11.2572 3.72518 11.0752 3.2541C10.7809 2.46898 10.132 1.896 9.34867 1.72394C8.56688 1.54854 7.75502 1.80746 7.18847 2.40383C6.87512 2.73625 4.11987 5.81328 4.11987 11.6934C4.11987 15.883 5.88918 19.2807 8.17915 21.9234C7.1125 21.2369 6.49055 20.6806 6.47473 20.6656C5.74517 19.994 4.70067 19.8537 3.83343 20.3181C2.96935 20.7842 2.45976 21.7581 2.54681 22.7787C2.57687 23.1312 3.25105 29.8165 10.5672 34.8647L9.23314 35.1203C8.42445 35.2756 7.74869 35.8619 7.44801 36.6705C7.1489 37.4807 7.26601 38.3944 7.75977 39.0893C7.92594 39.3249 11.0167 43.5662 17.7283 46.0051C14.1438 47.2663 9.21889 48.444 3.32859 48.444C2.39804 48.444 1.55137 49.0187 1.16681 49.9141C0.780665 50.8094 0.927843 51.8602 1.54188 52.5985C1.79667 52.9076 7.97342 60.1374 23.9019 60.1374C50.3513 60.1374 62.6747 34.2199 62.6747 16.7048V15.8696C62.6747 15.6224 62.6494 15.3801 62.6399 15.1363C65.9506 11.7585 67.1961 9.22441 67.2563 9.09913C67.5554 8.46434 67.4446 7.69926 66.9777 7.19143Z" fill="white"/>
</svg>
